<?xml version="1.0" encoding="UTF-8" standalone="no"?>
<svg
   width="834.5"
   zoomAndPan="magnify"
   viewBox="0 0 625.875 731.48134"
   height="975.30847"
   preserveAspectRatio="xMidYMid"
   version="1.0"
   id="svg2"
   sodipodi:docname="Jacqueline.svg"
   inkscape:export-filename="Jacqueline.svg"
   inkscape:export-xdpi="96"
   inkscape:export-ydpi="96"
   xmlns:inkscape="http://www.inkscape.org/namespaces/inkscape"
   xmlns:sodipodi="http://sodipodi.sourceforge.net/DTD/sodipodi-0.dtd"
   xmlns="http://www.w3.org/2000/svg"
   xmlns:svg="http://www.w3.org/2000/svg">
  <sodipodi:namedview
     id="namedview2"
     pagecolor="#ffffff"
     bordercolor="#000000"
     borderopacity="0.25"
     inkscape:showpageshadow="2"
     inkscape:pageopacity="0.0"
     inkscape:pagecheckerboard="0"
     inkscape:deskcolor="#d1d1d1"
     showgrid="false">
    <inkscape:page
       x="0"
       y="0"
       width="625.875"
       height="731.48132"
       id="page1"
       margin="0"
       bleed="0" />
  </sodipodi:namedview>
  <defs
     id="defs1">
    <clipPath
       id="4be7853a3c">
      <path
         d="M 277.37891,0 H 1087 V 810 H 277.37891 Z m 0,0"
         clip-rule="nonzero"
         id="path1" />
    </clipPath>
    <clipPath
       clipPathUnits="userSpaceOnUse"
       id="clipPath11">
      <path
         id="path12"
         style="fill:#ff0000;fill-opacity:1;fill-rule:nonzero;stroke:none;stroke-width:1.73159"
         d="M 1184.3882,323.04735 V 1812.9513 c 15.9741,0.1584 31.635,0.44 46.3842,0.815 77.4443,1.969 154.8104,6.6202 231.9411,13.8459 18.4275,2.0876 36.9157,3.6904 55.2822,6.2601 9.9505,1.3922 19.8063,3.4302 29.6128,5.6175 6.4931,1.4483 13.7701,1.5061 19.247,5.2827 4.9631,3.4224 8.9122,6.184 11.9993,8.5903 27.4037,0.5744 54.8058,1.1491 82.2097,1.7181 4.433,-0.8323 10.3281,-3.393 10.9307,0.2705 0.06,0.3659 0.1151,0.7297 0.1657,1.0958 4.1981,-1.1014 8.4027,-2.1832 12.6148,-3.2298 5.3062,-0.603 14.3156,-2.3203 19.3958,0.2638 14.1494,7.1972 19.5881,12.6986 20.8365,28.2465 0.031,0.3806 0.053,0.754 0.071,1.1228 9.1781,3.2396 18.603,6.979 25.5713,11.3162 6.4348,4.0052 14.0509,7.5904 17.7589,14.201 11.5718,20.6299 8.7748,31.791 -7.3356,45.6705 -4.0676,3.5044 -9.7816,4.4348 -14.6711,6.6524 -6.1498,1.3544 -12.2331,3.0554 -18.4488,4.0652 -12.4892,2.0291 -40.7911,4.3077 -52.2351,5.1441 -43.5912,3.1857 -87.2741,5.0584 -130.9477,6.6389 -20.0328,0.6195 -40.0629,1.325 -60.0982,1.8566 -100.0615,2.6554 -200.1926,3.8001 -300.2846,2.3269 v 31.1548 h 1445.008 V 323.04735 Z m 372.4532,1526.14205 c -0.1131,0 -0.2286,0 -0.345,0 -1.4482,0.07 -3.1524,0.9158 -5.1745,2.7327 3.1592,0.1113 6.3188,0.2435 9.6252,0.4126 -1.0793,-1.9184 -2.4094,-3.085 -4.1057,-3.1487 z m -372.4532,81.2323 v 3.9502 c 28.2335,0.4185 56.4717,0.6288 84.709,0.6527 -10.0458,-0.709 -20.1314,-1.5153 -30.1404,-2.7969 -12.1392,-0.3489 -24.5471,-0.7427 -37.5943,-1.1938 -5.149,-0.1781 -10.8724,-0.3834 -16.9743,-0.6122 z" />
    </clipPath>
  </defs>
  <g
     clip-path="url(#4be7853a3c)"
     id="g2"
     inkscape:export-filename="jacqueline logo.svg"
     inkscape:export-xdpi="96"
     inkscape:export-ydpi="96"
     transform="matrix(1.4437638,0,0,1.4437638,-913.46221,-139.92125)">
    <g
       transform="matrix(0.3,0,0,0.3,277.37859,2e-5)"
       id="g1">
      <path
         id="path2"
         style="fill:#d4aa00"
         d="m 1812.5512,323.04735 c -177.383,0 -207.9259,0.20517 -208.9232,1.40691 -0.7243,0.87263 -1.0559,4.19783 -0.8726,8.74924 l 0.2943,7.34233 4.0009,0.68316 c 2.2,0.37651 12.4055,1.17008 22.6797,1.76203 30.9842,1.78515 50.3292,6.03472 66.923,14.70156 15.3497,8.01702 27.1957,23.1718 32.7716,41.9233 5.1379,17.27855 4.9187,-1.05166 5.6953,477.68077 l 0.7238,445.75125 h 77.8537 77.8537 l 0.1352,-44.7506 c 0.075,-24.6125 0.4564,-227.6755 0.8455,-451.25044 0.6526,-374.94354 0.8377,-407.15859 2.3877,-414.99874 7.9033,-39.97635 28.5605,-58.83398 72.8991,-66.54428 7.5204,-1.30776 36.1721,-3.35753 47.9805,-3.43273 5.9368,-0.0378 8.0741,-2.87989 7.5554,-10.05131 -0.2309,-3.19208 -1.0119,-6.51501 -1.735,-7.38629 -1.1919,-1.43622 -20.7129,-1.58616 -209.0686,-1.58616 z m 448.9946,511.83223 c -17.4277,-1.87157 -64.0219,-1.56338 -84.496,0.55803 -60.655,6.28474 -118.0266,24.70212 -161.663,51.9002 -28.0754,17.4991 -57.4346,45.42437 -74.7694,71.11337 -15.1794,22.495 -30.4751,59.57492 -37.5064,90.92512 -5.4048,24.0982 -6.8733,38.0345 -6.9703,66.1723 -0.1007,29.1503 0.8307,39.2739 5.9896,64.9987 9.299,46.3695 25.3616,81.3558 53.4965,116.5302 13.2304,16.5406 19.1988,22.3603 26.3221,25.6525 l 6.1011,2.8172 152.5013,-0.2841 152.4978,-0.2874 -7.3491,3.5206 c -23.6975,11.3473 -41.1756,32.481 -42.789,51.7413 -1.1996,14.3214 1.5602,22.7172 13.9913,42.576 8.2799,13.2271 11.4426,19.899 10.031,21.1477 -0.4866,0.4304 -4.259,1.3402 -8.384,2.0224 -10.5501,1.7446 -29.5302,8.2115 -40.053,13.6464 -14.4311,7.4534 -21.9975,17.58 -21.9255,29.349 0.051,8.2341 7.7902,17.6422 16.9472,20.5998 5.7628,1.8613 24.0306,1.3079 32.4571,-0.9842 18.0675,-4.9146 33.303,-17.1955 38.4702,-31.0062 1.1244,-3.0053 2.5677,-9.5367 3.2062,-14.5155 1.3091,-10.2074 0.061,-9.1372 12.8955,-11.0524 4.125,-0.6155 8.2246,-1.3222 9.1112,-1.5693 1.4245,-0.3971 1.555,0.6456 1.1194,8.9725 l -0.4938,9.4223 3.8826,4.1531 c 4.4745,4.7901 9.9622,6.5215 17.282,5.4551 6.5104,-0.9486 15.5529,-5.8379 28.8045,-15.5775 2.864,-2.1049 5.4543,-3.8284 5.7528,-3.8284 0.2985,0 0.5411,1.7773 0.5411,3.9502 0,13.617 4.4938,19.2308 15.9123,19.876 3.6477,0.2061 8.497,-0.1273 10.7751,-0.7407 4.6119,-1.2419 18.8694,-10.3119 27.313,-17.3733 l 5.4992,-4.5995 1.1769,7.5689 c 0.9879,6.3627 1.6962,8.1089 4.4541,10.9543 4.145,4.2766 8.2953,5.435 15.7128,4.3865 8.464,-1.1964 15.3351,-4.5156 26.427,-12.7705 5.403,-4.0211 10.2348,-7.0579 10.7378,-6.7471 0.503,0.3109 1.213,2.1629 1.5794,4.1159 0.8029,4.2799 6.5317,8.8851 12.253,9.8518 5.0369,0.8509 17.005,-1.7349 24.5669,-5.3098 7.1936,-3.4008 19.4361,-12.0325 28.7571,-20.2717 3.6657,-3.2403 7.067,-5.8914 7.5588,-5.8914 0.4918,0 1.6078,2.2302 2.479,4.9546 l 1.5828,4.9513 -8.1405,2.6616 c -17.5377,5.7295 -26.6434,13.6745 -26.6434,23.2479 0,4.4456 2.6088,8.4135 7.038,10.704 5.7849,2.9914 21.9143,1.3186 29.5451,-3.0641 7.642,-4.3891 11.2037,-9.5762 15.8988,-23.1532 0.2277,-0.6587 2.3487,-1.6654 4.7145,-2.2389 18.3888,-4.4575 29.0924,-8.8859 38.3012,-15.848 3.8299,-2.8955 5.0735,-4.5044 5.3064,-6.8722 0.637,-6.4768 -5.5184,-8.3104 -11.6612,-3.4734 -5.7136,4.4992 -13.4153,7.9846 -22.3888,10.1359 -12.2081,2.9268 -14.0273,2.7444 -16.1085,-1.62 -2.1626,-4.5349 -4.7447,-15.4143 -3.9603,-16.6834 0.3297,-0.5335 3.0234,-0.7026 6.1282,-0.3822 6.811,0.703 8.108,-0.5603 8.154,-7.9544 0.037,-5.9794 -1.6941,-7.6891 -8.7155,-8.614 -6.6447,-0.8754 -12.8459,2.7681 -20.664,12.1414 -15.9914,19.1728 -33.9061,32.1309 -51.8393,37.4929 l -4.7484,1.4204 v -2.6988 c 0,-1.5311 3.3096,-8.4745 7.6603,-16.0645 5.7834,-10.0898 7.7732,-14.5278 8.1168,-18.1039 0.4085,-4.2511 0.1871,-4.9132 -2.1577,-6.4495 -1.8185,-1.1915 -3.603,-1.5166 -5.8678,-1.0687 -4.2913,0.8487 -5.6674,2.0303 -9.9938,8.5802 -5.775,8.7431 -39.3865,36.4448 -48.6839,40.124 -1.3331,0.5275 -3.7489,0.6674 -5.3707,0.3112 l -2.9491,-0.6494 0.4465,-7.7211 c 0.7448,-12.8668 3.9541,-18.2904 21.5196,-36.3971 29.1719,-30.0707 45.5111,-53.6886 46.9659,-67.8835 1.1064,-10.7944 -2.4315,-14.5144 -12.7738,-13.4334 -8.1987,0.8569 -11.2623,2.9517 -19.5378,13.3725 -18.8648,23.7552 -26.7401,35.8945 -36.5189,56.2765 -12.0799,25.178 -11.6258,24.4795 -23.3899,35.8898 -11.6554,11.3048 -19.5926,16.8286 -28.2059,19.6292 -8.5772,2.7891 -10.26,0.9396 -8.499,-9.3411 2.014,-11.7575 6.0127,-18.0095 21.1612,-33.1031 21.8805,-21.8012 36.4407,-40.591 44.5951,-57.5447 4.2672,-8.8719 5.0085,-16.6901 2.1137,-22.2807 -1.6481,-3.1828 -1.8221,-3.251 -8.4076,-3.223 -12.8048,0.054 -18.5864,5.2671 -37.5876,33.8843 -11.9604,18.0133 -21.89,35.6322 -27.5397,48.8597 -5.226,12.2353 -8.3921,15.9912 -19.9335,23.6504 -19.5572,12.9786 -31.1618,17.7555 -31.1618,12.8279 0,-2.5118 4.959,-12.6036 10.1934,-20.7486 9.2307,-14.3636 8.9764,-21.4994 -0.7643,-21.4994 -3.7976,0 -4.5692,0.4237 -7.1428,3.9232 -3.7017,5.0336 -11.8814,11.7947 -15.7669,13.0342 -2.734,0.8722 -26.3832,5.0426 -28.5982,5.0426 -0.507,0 -0.9233,-0.6527 -0.9233,-1.4509 0,-1.6462 -8.1845,-17.5525 -14.4344,-28.0503 -13.03,-21.886 -13.4637,-32.0788 -2.0393,-48.0887 5.6451,-7.9109 13.1615,-13.9952 24.4755,-19.8118 11.5696,-5.948 18.7368,-7.9197 29.1529,-8.0187 8.0896,-0.076 8.9407,0.1169 13.0004,2.9592 4.0632,2.8447 4.3655,3.3775 4.6469,8.2115 0.5986,10.2822 -7.5759,21.7111 -23.302,32.5856 -8.7109,6.0236 -9.0099,6.361 -9.3073,10.4403 -0.2711,3.7188 10e-5,4.3536 2.3167,5.4078 3.2705,1.4902 9.6587,-0.027 16.1625,-3.8386 6.3665,-3.731 17.3941,-14.792 22.2333,-22.3009 5.6163,-8.7147 7.3773,-15.1995 6.9433,-25.5544 -0.3072,-7.33 -0.7049,-8.8278 -3.3482,-12.5777 -1.65,-2.3408 -5.2484,-5.6419 -7.9984,-7.3355 l -5.002,-3.0777 -17.1907,0.1252 c -13.4917,0.099 -17.2998,-0.161 -17.7014,-1.2074 -0.9333,-2.4323 -8.6319,-6.532 -68.6073,-36.5392 -58.3495,-29.1937 -83.0223,-42.4404 -99.9991,-53.6892 -28.3661,-18.7952 -53.0448,-41.4268 -65.7765,-60.3214 -17.6995,-26.2673 -28.4245,-56.3136 -32.1527,-90.0797 -1.375,-12.4524 -1.3883,-52.7953 -0.02,-63.815 5.3724,-43.30085 21.8288,-79.05837 48.0988,-104.50722 16.7456,-16.22209 35.1459,-27.60205 57.1694,-35.35546 32.4582,-11.42699 71.3432,-14.69582 102.8467,-8.64778 11.2511,2.15998 29.1183,8.17273 38.8321,13.06806 36.6636,18.47686 62.8465,55.82565 74.9892,106.96935 6.1969,26.10035 8.5959,47.38365 10.0817,89.49795 0.5919,16.775 1.2596,31.4469 1.4847,32.6025 0.3651,1.8742 1.3338,2.1723 8.9758,2.7597 9.5824,0.7366 28.5887,-0.7149 38.4703,-2.939 8.748,-1.969 27.8879,-8.8741 36.4986,-13.1661 9.8587,-4.9142 17.8643,-10.8606 26.109,-19.3958 18.3374,-18.9836 26.4179,-39.578 26.3729,-67.2207 -0.026,-16.09361 -1.1737,-23.25665 -6.0639,-37.88515 -10.7027,-32.0166 -24.8277,-51.42892 -50.4155,-69.28032 -53.5155,-37.33514 -113.6753,-58.60471 -188.4993,-66.64235 z m -852.8936,462.49892 c -16.7362,-0.6499 -38.1209,3.277 -46.9963,9.7064 -7.6889,5.5698 -10.3895,16.2665 -5.8239,23.0652 4.9043,7.3031 19.6642,11.9577 21.0868,6.6491 0.9721,-3.6273 0.7865,-4.2834 -2.3674,-8.2521 -1.65,-2.0763 -2.9998,-4.6043 -2.9998,-5.6175 0,-4.7441 19.9189,-10.2468 35.1863,-9.7199 9.0672,0.3129 9.9671,0.5327 12.4763,3.0438 l 2.7022,2.7056 -1.8026,12.2936 c -2.3443,15.9969 -5.3042,26.0344 -12.1313,41.1386 l -5.5668,12.3207 -13.785,1.6876 c -33.2951,4.0764 -58.3348,13.2568 -79.7848,29.2543 -13.9409,10.3971 -22.3298,20.7244 -28.1214,34.6148 -2.2758,5.4582 -2.6241,7.7163 -2.6481,17.2787 -0.025,10.07 0.2137,11.4873 2.7936,16.7409 4.3648,8.8887 12.8439,14.8959 23.6807,16.7781 17.2502,2.996 41.5813,-5.2865 58.4985,-19.9132 28.1156,-24.3089 58.1865,-74.8187 70.3322,-118.1435 6.332,-22.5866 8.5287,-46.4195 4.8362,-52.4616 -2.5115,-4.1097 -9.1853,-8.9632 -15.0127,-10.9172 -3.9102,-1.3111 -8.974,-2.0357 -14.5527,-2.2524 z m 530.21,44.7135 c -3.2441,-0.073 -6.8769,0.2614 -9.6624,1.0349 -7.1382,1.9821 -13.0815,9.5611 -33.3905,42.5692 -6.2696,10.1898 -12.086,21.2561 -15.7669,29.9984 -7.3173,17.3791 -10.9183,23.0881 -18.1241,28.7436 -12.3153,9.6659 -36.4659,20.61 -45.4812,20.61 -4.986,0 -10.4019,-2.225 -11.8066,-4.8498 -0.5943,-1.1104 -1.0788,-3.7902 -1.0788,-5.9557 v -3.9367 l 7.7481,-0.4633 c 10.8635,-0.6488 20.2694,-5.7017 26.4236,-14.1943 5.0251,-6.9347 3.1913,-17.2982 -3.5612,-20.1195 -4.1806,-1.7468 -19.7851,-0.4433 -25.1452,2.1002 -2.376,1.1275 -7.053,5.7906 -13.1087,13.0647 -10.5259,12.6436 -17.4495,18.6701 -30.1099,26.2173 -6.478,3.8618 -9.5949,5.1372 -12.5676,5.1372 h -3.9535 l 0.5851,-4.2512 c 0.3207,-2.3375 2.4419,-8.2157 4.7145,-13.0646 2.5186,-5.3739 4.3506,-10.9291 4.6908,-14.2247 0.5338,-5.1723 0.4409,-5.4498 -2.1442,-6.4326 -1.4862,-0.5651 -3.9969,-1.0281 -5.5769,-1.0281 -2.9952,0 -3.7018,0.7024 -20.2108,20.0011 -6.9231,8.093 -18.0525,17.6967 -18.6011,16.051 -0.3633,-1.0898 3.5492,-8.6802 11.1945,-21.7124 2.6331,-4.4885 5.028,-9.961 5.3232,-12.1617 0.4944,-3.6859 0.295,-4.128 -2.5331,-5.5905 -4.6427,-2.4008 -8.4049,-2.0135 -11.3195,1.1634 -1.3876,1.5125 -5.2827,6.3729 -8.658,10.8022 -6.8329,8.9667 -14.7317,15.8155 -26.6907,23.1362 -8.475,5.1881 -20.0519,10.714 -24.9355,11.9047 l -2.9356,0.717 2.5331,-4.4034 c 16.8957,-29.3605 19.0616,-36.0669 12.3376,-38.2031 -1.65,-0.5242 -4.1242,-1.9693 -5.4992,-3.2129 -5.2088,-4.711 -8.7295,-5.7488 -17.9212,-5.2827 -10.9712,0.5564 -13.9836,2.1117 -26.6772,13.7817 -12.2605,11.2717 -22.6849,18.3474 -37.476,25.436 -14.6422,7.0174 -25.2724,9.9802 -33.4446,9.3242 -3.3489,-0.2688 -7.0782,-1.1059 -8.2859,-1.8601 -3.3423,-2.0873 -3.8134,-6.9805 -1.1939,-12.3917 3.9604,-8.181 14.9652,-18.7707 21.7463,-20.921 2.1266,-0.6744 2.2524,-0.44 2.2524,4.2444 0,4.884 0.049,4.9658 3.541,5.6209 1.9491,0.3661 4.3815,0.4002 5.4044,0.074 2.2896,-0.7267 5.0624,-6.3253 5.0324,-10.1663 -0.03,-3.9125 -3.3759,-10.958 -5.8272,-12.2699 -1.1106,-0.5944 -5.8034,-1.0789 -10.4267,-1.0789 -11.912,0 -17.2789,2.8376 -29.7413,15.7365 -10.1234,10.478 -22.4937,19.4788 -36.3464,26.4438 -6.8631,3.4507 -8.9283,4.0239 -14.8706,4.1159 -5.0055,0.077 -7.1684,-0.2934 -7.8801,-1.346 -1.6774,-2.4808 -0.1304,-10.6634 3.568,-18.8547 4.4595,-9.8767 4.6977,-14.713 0.7948,-16.1795 -1.5125,-0.5684 -4.6825,-2.9195 -7.0447,-5.2251 l -4.2952,-4.1937 h -9.2193 -9.2194 l -8.6782,5.7764 c -15.8649,10.558 -24.683,23.3248 -25.5612,37.0093 -0.8282,12.9042 3.7723,18.5853 14.0624,17.3666 6.2463,-0.7398 11.2728,-3.2246 20.6742,-10.2171 6.3149,-4.6969 7.6309,-5.3178 8.5023,-4.0279 5.3805,7.9642 7.0505,9.6765 11.7254,12.0061 4.1138,2.05 6.6646,2.5878 12.2497,2.5872 8.3315,-9e-4 14.2073,-2.4308 28.9465,-11.979 5.1099,-3.3102 9.8131,-6.02 10.4504,-6.02 0.6373,0 1.1567,0.8896 1.1567,1.9785 0,4.0671 3.0946,9.5584 6.7707,12.0128 6.8857,4.5972 9.3493,5.2693 19.2301,5.2793 16.2175,0.01 29.1537,-3.8686 45.8836,-13.7546 5.1259,-3.0289 9.6655,-5.2952 10.0851,-5.0358 0.4197,0.2593 1.0017,2.1685 1.2953,4.2444 0.9621,6.8037 2.4741,9.2554 6.9771,11.2993 2.3416,1.0629 5.4227,1.9428 6.8452,1.9548 2.3834,0.02 2.5793,0.3529 2.4993,4.241 -0.071,3.4636 0.2723,4.2859 1.9142,4.5962 1.1,0.2079 2.3701,0.7254 2.8206,1.1499 0.4504,0.4246 -2.7438,7.9183 -7.0954,16.6529 -8.7106,17.4842 -11.4663,24.0664 -13.616,32.5045 -3.5653,13.9947 -3.2106,23.8186 1.0417,28.8721 2.1143,2.5128 3.2568,3.0032 6.9872,3.0032 5.9232,0 9.2692,-1.8839 14.6035,-8.225 15.5034,-18.4294 23.9547,-40.3209 26.5047,-68.6411 l 0.7542,-8.3637 5.4991,-1.7282 c 7.9753,-2.5066 17.2246,-6.9277 27.631,-13.2067 l 9.1314,-5.5093 1.6166,5.8103 c 2.0552,7.392 5.1974,9.399 13.1594,8.4043 5.8009,-0.7248 10.8988,-3.5858 19.4228,-10.8935 l 5.4586,-4.6773 2.0393,5.6716 c 2.7809,7.7302 5.6561,9.735 13.7817,9.6117 8.2176,-0.1246 17.4433,-3.6143 28.3614,-10.7311 4.6576,-3.0359 8.6195,-5.5194 8.8068,-5.5194 0,0 0.01,-2e-4 0.01,0 0.1926,0.056 0.5868,1.2725 0.8827,2.7495 1.728,8.6232 11.5147,15.5362 24.2524,17.1333 12.38,1.5524 17.2876,-0.071 40.3202,-13.3353 6.255,-3.6023 11.4966,-6.5475 11.6476,-6.5475 0.1511,0 0.8019,3.0331 1.4475,6.7403 1.3689,7.8608 4.2852,13.5969 7.7042,15.1547 3.7804,1.7225 13.4814,1.3013 20.5964,-0.8962 6.371,-1.9679 19.0618,-9.4957 25.5138,-15.1311 3.906,-3.4117 5.2185,-3.6059 5.2185,-0.7711 0,6.7879 7.0379,12.9024 14.8537,12.9024 7.938,0 21.1466,-5.3126 32.8934,-13.2304 l 4.2511,-2.868 v 4.6165 c 0,6.8737 1.2246,8.482 6.4631,8.482 4.1034,0 4.7799,-0.4132 10.2068,-6.2499 10.425,-11.2122 32.0208,-31.3917 32.7818,-30.6308 0.197,0.2762 -1.1752,3.9865 -3.0743,8.2927 -8.7986,19.9511 -7.8917,33.1523 2.638,38.362 3.2281,1.5971 4.8235,1.8069 8.5396,1.1127 9.8596,-1.842 20.4221,-8.4033 33.0726,-20.5457 l 7.1326,-6.8451 1.0552,4.6874 c 1.51,6.7073 3.6507,9.4173 9.7165,12.2868 4.5351,2.1454 6.7616,2.5264 14.7658,2.5264 13.4761,0 18.7642,-1.2608 31.3343,-7.4641 19.4835,-9.6151 34.0301,-20.1473 37.3778,-27.0628 2.7671,-5.7161 1.577,-8.4753 -3.6525,-8.4753 -2.8437,0 -4.6098,0.9463 -8.7121,4.6604 -15.6259,14.1473 -37.7198,24.3403 -52.7592,24.3403 -8.7827,0 -11.8877,-2.2027 -11.8877,-8.4347 v -4.2884 l 7.7481,-1.2175 c 13.5076,-2.1215 23.0516,-7.889 27.1812,-16.4196 2.4802,-5.1235 2.5695,-7.3476 0.4971,-12.527 -1.9845,-4.9598 -5.6839,-6.6307 -14.5189,-6.5577 -11.159,0.092 -22.3113,7.0726 -30.9318,19.362 -4.0931,5.8351 -14.5011,15.3748 -29.3456,26.8937 -8.6698,6.7275 -12.3303,8.9559 -16.8221,10.2441 -2.6012,0.7461 -2.8104,0.5992 -2.8104,-1.9954 0,-1.5406 1.9973,-7.3048 4.4371,-12.8077 5.506,-12.4183 7.4809,-19.1629 7.6941,-26.2916 0.1804,-6.0308 -1.1423,-9.5478 -3.8792,-10.3185 -8.3336,-2.3466 -12.3388,-1.2185 -22.1724,6.2364 -2.9359,2.2256 -5.4772,3.9222 -5.7122,3.8183 -0.1492,-0.2317 0.081,-2.6684 0.5242,-5.4721 1.0666,-6.7475 -0.5421,-8.467 -7.5012,-8.0221 -4.8217,0.3082 -4.8442,0.3278 -9.0875,7.3085 -2.3402,3.85 -6.3494,9.4006 -8.9082,12.3341 -5.5929,6.4121 -20.5886,17.8077 -28.8789,21.9459 -5.9339,2.962 -16.5024,6.5525 -17.2076,5.8474 -1.1108,-1.1109 2.1508,-9.8431 6.3311,-16.9573 7.9808,-13.5819 9.3749,-16.7516 9.3749,-21.3033 0,-5.0163 -1.6621,-6.3649 -7.8395,-6.3649 -3.6815,0 -4.1714,0.3443 -6.7403,4.7483 -1.5239,2.6125 -8.2061,10.3035 -14.847,17.0893 -17.9462,18.3379 -30.5564,26.9149 -40.2999,27.4145 l -4.772,0.2469 0.1183,-7.7076 c 0.1011,-6.6065 0.6187,-8.764 3.6424,-15.1311 2.8924,-6.0907 5.8916,-9.8984 16.6801,-21.1781 19.696,-20.5926 34.9364,-40.2406 41.8692,-53.9835 5.4504,-10.8043 6.3367,-23.8811 1.833,-27.0357 -1.2334,-0.8639 -4.0882,-1.3474 -7.3322,-1.4204 z m 501.2668,16.5481 c 0.3244,-0.01 0.4228,0.3507 0.4228,1.0146 0,2.7152 -5.6684,11.9807 -14.0015,22.8928 -9.6656,12.6569 -15.9003,19.4108 -15.9563,17.282 -0.063,-2.4342 20.9349,-33.4768 25.8622,-38.2335 2.1081,-2.0351 3.1669,-2.9426 3.6728,-2.9559 z m -505.3151,1.4171 c 0.3198,-0.01 0.473,0.3101 0.5581,0.8793 0.4174,2.7925 -5.3581,13.0781 -12.8483,22.8759 -3.253,4.2552 -8.3846,10.4343 -11.4041,13.7343 -4.4297,4.8412 -5.4986,5.5914 -5.5296,3.8758 -0.048,-2.6029 15.6197,-26.3184 23.6233,-35.758 3.3861,-3.9936 4.8971,-5.591 5.6006,-5.6073 z m 563.188,1.0518 c 1.7485,0.01 -0.8262,4.6487 -10.2949,18.5942 -11.1635,16.4418 -18.4493,25.2992 -19.46,23.6639 -0.6727,-1.0885 6.4959,-13.5593 13.386,-23.2885 4.973,-7.0223 15.1593,-18.8852 16.2843,-18.9662 h 0.085 z m 28.6083,34.7906 c -2.4305,0.081 -4.919,0.9182 -6.6591,2.6583 -4.293,4.293 -6.4728,11.5297 -4.7923,15.9089 0.425,1.1076 1.9131,1.5828 4.9647,1.5828 3.4867,0 5.0953,-0.649 8.0424,-3.2366 3.7434,-3.2867 6.3853,-8.1115 6.3853,-11.6611 0,-3.4154 -3.8901,-5.3864 -7.941,-5.2523 z m -175.0896,0.1489 c -4.6872,0 -9.3958,2.1228 -10.4639,4.7145 -1.7464,4.2378 -2.2537,8.6201 -1.3664,11.8336 0.8994,3.2574 1.1959,3.453 5.2895,3.453 3.7795,0 4.7945,-0.5059 7.897,-3.94 3.977,-4.4021 5.5207,-9.9071 3.8216,-13.6363 -0.9053,-1.987 -1.84,-2.4248 -5.1778,-2.4248 z m -387.1514,0.1927 c -4.7137,-0.023 -8.8126,2.5779 -10.8291,7.0211 -2.216,4.8825 -2.5544,9.8237 -0.7914,11.5867 0.66,0.66 3.1534,1.2006 5.5397,1.2006 3.6399,0 4.9947,-0.6105 8.4009,-3.7878 3.313,-3.0903 4.1387,-4.6105 4.5014,-8.2521 0.5466,-5.4878 -0.3222,-6.8745 -4.7686,-7.596 -0.6943,-0.1127 -1.3795,-0.1691 -2.0529,-0.1725 z m -574.6563,2.8071 h 6.9433 l -7.7279,15.1108 c -19.1841,37.5114 -40.4478,61.395 -61.7553,69.3648 -8.3128,3.1094 -13.2506,3.6718 -18.8141,2.1476 -17.2943,-4.7382 -19.879,-20.2819 -6.7505,-40.5942 5.079,-7.8584 15.5804,-18.2122 24.4992,-24.1576 19.7338,-13.1549 45.0828,-21.8714 63.6053,-21.8714 z m 433.5592,29.0007 c 2.9386,0 2.9051,2.0607 -0.081,4.8667 -1.298,1.2195 -4.7258,3.1156 -7.6162,4.2139 l -5.2557,1.9988 3.2028,-4.0449 c 3.9532,-4.9911 6.7857,-7.0345 9.7503,-7.0345 z m 287.1354,0.1521 c 0.2549,-0.013 0.5065,3e-4 0.7609,0.027 l 2.6752,0.3213 -3.3955,3.338 c -4.0269,3.9581 -10.0991,7.2835 -11.5631,6.3345 -0.5998,-0.3888 1.2156,-2.7158 4.285,-5.4924 3.5507,-3.2119 5.4533,-4.4358 7.2375,-4.5285 z m -656.4467,1.1702 c 3.0079,-0.1153 4.9396,2.1394 4.1768,5.2726 -0.7101,2.9166 -19.47,22.4688 -24.5871,25.6254 -3.6692,2.2634 -7.9995,3.102 -7.9985,1.549 0,-2.704 5.9146,-13.5152 10.1021,-18.4692 5.2019,-6.1541 13.5251,-12.9191 16.9539,-13.7782 0.4689,-0.1175 0.9232,-0.1831 1.3528,-0.1996 z m 191.6784,0.068 c 0.8292,-0.036 1.6548,0.033 2.5061,0.1927 3.4069,0.6391 3.5693,0.8464 2.9795,3.798 -0.7177,3.5916 -11.6484,15.16 -21.0496,22.2807 -3.2858,2.4888 -7.6831,5.3981 -9.7706,6.463 -3.4332,1.7515 -3.8541,1.781 -4.4169,0.3145 -1.3602,-3.5447 8.3046,-18.3466 16.8728,-25.8419 5.6645,-4.9552 9.2854,-7.0527 12.8787,-7.207 z m 622.4508,27.6106 h 4.6468 l -0.7034,5.2489 c -1.9687,14.6768 -15.3374,28.2238 -33.3398,33.7862 -8.2028,2.5345 -14.3105,2.4419 -21.1206,-0.3179 -6.0514,-2.4524 -7.8492,-5.273 -6.5881,-10.3286 2.7262,-10.9293 37.847,-28.3886 57.1051,-28.3886 z m 291.975,12.9159 c 0.9548,0.024 1.4847,0.4932 1.4847,1.4475 0,2.3016 -3.9815,6.5878 -8.0526,8.6647 -7.0687,3.6062 -12.5828,1.8666 -7.3558,-2.3201 6.2656,-5.0186 11.4837,-7.8543 13.9237,-7.7921 z m -928.6843,0.081 c 0.8894,0 0.7976,0.8197 -0.3315,3.0032 -1.2721,2.46 -2.1766,2.9998 -5.0256,2.9998 -1.8213,0 -3.326,-0.1509 -3.4632,-0.3382 v -0.01 -0.01 c 0,-0.749 7.6571,-5.6378 8.8304,-5.6378 z m 5.4585,23.1971 c 0.3204,-0.019 0.4194,0.7639 0.5006,1.9819 0.6856,10.2912 -7.4915,33.044 -16.3182,45.4135 -2.5156,3.5253 -4.7751,6.4089 -5.0223,6.4089 -1.8437,0 2.9788,-14.0674 12.1076,-35.3216 5.9686,-13.8966 7.9736,-18.4379 8.7323,-18.4827 z m 728.463,29.6094 -133.7514,0.3484 0.014,3.1723 c 0.016,3.5036 0.4196,3.8027 31.4865,23.2175 20.0349,12.5206 50.5734,33.2551 60.5006,41.0811 14.9422,11.7795 34.6717,32.4875 43.2355,45.3764 18.7502,28.2199 30.7244,61.9231 33.8268,95.2169 1.6586,17.7986 0.7021,69.7201 -1.5422,83.762 -3.6545,22.8642 -11.5987,48.5084 -21.0293,67.8836 -9.5708,19.6631 -16.6754,29.4899 -33.4074,46.215 -16.8053,16.7982 -24.4343,22.7171 -39.1162,30.3467 -29.2136,15.1813 -62.31,22.5749 -101.1117,22.5749 -28.2929,0 -50.8546,-3.3781 -73.5282,-11.0152 -23.4175,-7.8877 -38.9331,-17.6057 -55.4005,-34.7027 -36.3868,-37.778 -56.8457,-85.8503 -67.3628,-158.2811 -3.4215,-23.5637 -6.5644,-69.5658 -6.5644,-96.1842 -8e-4,-6.4267 -0.4411,-12.8409 -0.9774,-14.2517 -0.8923,-2.3467 -1.4641,-2.5634 -6.7471,-2.5534 -16.5126,0.029 -38.7247,3.1372 -51.2779,7.1766 -24.3586,7.8381 -46.1809,26.9198 -57.5347,50.3107 -8.8253,18.1819 -12.4626,37.4542 -12.4626,65.9997 0,32.8315 5.0322,55.4219 18.6044,83.5017 14.2662,29.5159 33.8431,52.8757 65.3944,78.0295 46.0655,36.7251 108.0052,56.0507 196.5011,61.3123 2.75,0.1635 14.2253,0.3728 25.5003,0.4668 98.2631,0.8176 184.288,-21.7482 244.3598,-64.1025 28.3386,-19.9805 54.202,-46.5791 74.1064,-76.2067 18.3003,-27.2399 31.1695,-57.0981 39.9854,-92.7852 17.5129,-70.893 14.5702,-146.5056 -8.0796,-207.5839 -4.1918,-11.304 -15.1684,-34.5774 -19.4634,-41.2706 -2.078,-3.2382 -4.1441,-5.0992 -6.7065,-6.0403 -3.0718,-1.1281 -26.5132,-1.3019 -137.4514,-1.0146 z m -558.8792,0.2097 c -63.7455,-0.013 -76.8182,0.2177 -77.7658,1.3596 -0.6266,0.7549 -1.8269,7.3913 -2.665,14.7489 -8.7831,77.1087 -25.6809,123.3581 -56.9056,155.7514 -16.1722,16.7774 -29.5176,26.4843 -49.1709,35.7545 -25.9012,12.2172 -50.3457,17.0334 -98.3351,19.3789 -16.0845,0.7861 -20.796,1.3272 -21.9999,2.5331 -1.6579,1.6606 -2.0645,11.5748 -0.69,16.8119 l 0.7508,2.8544 51.2036,-0.5039 c 62.4465,-0.6133 74.9559,-1.6719 110.2059,-9.3208 51.925,-11.2673 87.7673,-26.7604 123.3687,-53.3308 15.4532,-11.5332 22.3758,-18.0917 34.8853,-33.0455 24.0445,-28.7427 41.7336,-60.5322 53.8449,-96.7625 8.3092,-24.8565 14.0745,-53.564 11.1302,-55.4344 -0.6756,-0.4291 -35.7119,-0.7848 -77.8571,-0.7948 z m -531.3735,367.9856 v 0.01 z m -61.5051,2.2219 c 0.01,0.099 0.016,0.1982 0.024,0.2976 0.1716,-0.01 0.3452,-0.017 0.5175,-0.024 -0.1847,-0.095 -0.3658,-0.186 -0.5412,-0.274 z m 88.3244,2.9153 c -0.03,0.025 -0.059,0.049 -0.088,0.074 0.033,0 0.065,-0.01 0.098,-0.01 0,-0.023 0,-0.04 -0.01,-0.064 z m 311.0867,19.3451 c 0.069,-0.044 -0.1397,0.086 -0.2096,0.1285 -0.01,0.01 -0.01,0.011 -0.014,0.017 0.074,-0.048 0.1467,-0.096 0.2232,-0.1454 z m -338.163,5.0392 c -0.01,0.2047 -0.014,0.4078 -0.02,0.6087 0.1,0.01 0.2012,0.01 0.3044,0 -0.094,-0.203 -0.1885,-0.4061 -0.2841,-0.6087 z m 345.2619,11.7254 c -0.075,0.058 -0.1481,0.1168 -0.2233,0.1758 l 0.2199,-0.057 z m -435.558,1.2784 -0.1082,0.4768 h 0.6291 c -0.1743,-0.1596 -0.3467,-0.3172 -0.5209,-0.4768 z"
         clip-path="url(#clipPath11)"
         inkscape:export-filename="C:\Users\luanz\logo.png"
         inkscape:export-xdpi="96"
         inkscape:export-ydpi="96" />
    </g>
  </g>
</svg>
