<?xml version="1.0" encoding="UTF-8"?>
<svg id="a" data-name="Camada 1" xmlns="http://www.w3.org/2000/svg" width="180mm" height="180mm" viewBox="0 0 510.2362 510.2362">
  <path d="M484.539,255.1895c0,126.6656-102.6827,229.3483-229.3483,229.3483S25.8424,381.855,25.8424,255.1895,128.5252,25.8412,255.1907,25.8412s229.3483,102.6827,229.3483,229.3483ZM313.0603,217.3323c-8.3252,4.7924-15.9636,2.2788-24.3982-1.4722l-9.716-4.3208c-4.9333-2.1939-10.5859-2.5227-15.7254-.5287l-11.3142,6.7754.7024-26.9365,15.2729-.3401c8.7762-1.5297,16.3514-7.7128,20.7853-15.259l3.3121-8.391,38.4196,11.9252-.0246-14.7802-38.5213.1364c1.4576-10.7152-.9053-20.6942-8.0416-28.2976-7.5967-7.2799-17.4581-10.1716-28.1027-10.4498-19.5085-1.0081-38.7448-.594-58.5721.337l-.3555,69.1553-.2502,48.1395,14.0413-.0402.0155-52.1905,26.5317-.019c.6617,1.5181.7042,2.7634.7085,4.4596l.1971,78.9387c.0031,1.2552.6151,1.9884,1.8156,1.9482l11.294-.3782.5095-31.0816.2521-16.3774c.0336-2.1851-.0312-5.1151,1.4428-6.816,3.0494-3.5188,8.0717-4.2113,12.523-3.3052,10.9362,2.226,19.5613,10.8382,29.3017,12.0706,18.137,2.2947,24.1121-16.4798,17.8966-12.9019ZM377.4231,304.4776l14.2913-8.4764c.8601-.5101.112-2.7607-.8599-3.3584l-16.0469,10.1313c-.7563.4775-1.557.8552-1.9514,1.477-.2425.3823-.2042,1.5321.1854,1.7412,1.9149.9046,2.9929-.691,4.3815-1.5147ZM152.1555,296.746l-8.6653,51.2395,4.0323.6819,8.6653-51.2395-4.0323-.6819ZM160.7413,296.6942l-8.6525,51.2936,3.9268.6624,8.6525-51.2936-3.9268-.6624ZM355.9811,323.7765c.8762-.0122,1.2045-2.7278.6123-2.8789l-25.3978.0839c-.9136-2.2657-.1099-4.0244.239-5.9857l2.5014-14.0619,29.361-.1297c.3985-.963.6698-1.7795.7304-2.9365l-27.2373-.0849c-2.095-.0065-4.1356-.5343-6.0504.3463l-4.5256,25.033-1.0608,5.8565-3.0283,19.0498c1.2003.1569,2.2412.0617,3.3224-.3588l2.2997-11.5979,2.2095-11.974,26.0247-.3612ZM401.0429,296.807l-8.8502,50.5501,3.8845.6801,8.8502-50.5501-3.8845-.6801ZM412.0486,306.1136l1.6575-8.8178c-1.1707-.1602-2.1926-.2134-3.5189.0796l-1.1836,8.6902c.0174.7578,2.8767.9431,3.045.048ZM93.8883,328.6286c2.3328-.0592,5.2394-1.6264,6.6374-2.7459,4.9782-3.9868,7.2058-9.0498,7.0084-15.3342.2048-5.3076-2.9997-12.2375-8.7711-12.3306l-24.1623-.3899-8.739,49.9661c1.3252.4137,2.3006.3704,3.4024.2317l3.5469-18.8622,21.0773-.5349ZM134.7186,344.308c12.629-11.2974,9.0095-30.9742.1545-33.6849-4.3558-1.3334-9.0239-.6247-13.1705-.4406-12.3703,4.7925-17.5026,17.6772-14.2078,29.5624,1.5418,5.5614,6.7069,8.7403,12.462,9.1711,5.0285.3764,10.7839-1.0496,14.7617-4.608ZM198.2746,340.3419c.1339,3.5509,1.45,6.5093,4.8726,7.5708,7.6842,2.3833,15.8068.3582,21.7985-5.3236.634,2.2886-.2419,3.6384-.19,5.2226,1.1011.4269,2.3022.4793,3.092-.0363l3.8724-20.9221.6609-8.1753c.3387-4.1895-2.3657-7.3321-6.5727-8.2026-5.046-1.0441-10.7738-.9933-15.5658,1.1589-7.1131,3.1947-9.3186,12.5161-5.829,11.1712,2.0044-.7725,1.7005-4.2473,3.857-6.2592,4.9957-4.6606,13.1883-5.8704,18.9395-1.5229,2.3454,1.7729,2.7537,7.221.8565,9.2115-4.6511,4.8798-30.4931-2.4903-29.7919,16.1071ZM262.4121,313.7551c3.3099,1.3133,3.7034,6.3978,2.9528,10.8422l-3.9622,23.46,3.1825-.1153,4.5204-27.037c.5451-3.2603-.1767-6.2881-2.0585-8.4038-4.3869-4.9324-20.5483-3.5639-25.1737,6.0243-.3669-2.6945.8512-5.0434.9724-7.335-.0239-.7948-2.986-.9409-3.1559.0094l-6.5139,36.4426c.7771.8055,2.8912.6172,3.4982-.0505l2.5218-15.1353c.6433-3.8611,1.593-7.3658,3.3596-10.8043,3.7138-7.2287,11.8771-11.0631,19.8564-7.8971ZM272.4767,346.8411l4.6979,1.6412c7.3478,1.3758,14.6327-1.0274,19.8678-6.1772l.1232,5.759c1.208.09,1.8102.0932,2.8152-.2954l2.2224-12.3109,2.5398-15.2058c.8451-5.0595-2.6612-9.3436-7.6858-10.022-11.3487-1.5324-20.6718.8493-22.5796,12.428.6725.6344,2.1763.6752,3.1227.2829.5373-3.4657,2.2168-6.4276,5.3106-8.2382,4.7224-2.7636,10.7621-3.317,15.7322-.329,2.931,1.7621,3.892,8.5407.8189,10.3359-5.4239,3.1684-15.1243-.0967-23.9458,5.0684-5.8573,3.4295-6.7457,11.6656-3.0396,17.0632ZM364.8095,343.5004c-4.1332-3.3094-4.2526-9.3137-3.2865-13.5378l29.6469-.1313c.7955-3.2283.6085-6.7136.1666-10.0197-.8363-6.2567-5.7209-9.8599-11.8733-9.9811-5.383-.106-10.4559.9555-14.4623,4.9329-8.9296,8.8648-9.2426,26.7549-2.0547,31.4526,9.3841,6.133,22.0191,1.4211,26.2477-8.8958-1.2146-1.2548-3.2998-.5187-4.1792,1.2511-3.575,7.1939-13.5192,10.2823-20.2051,4.929ZM191.2714,352.9042l1.2964-5.3231,6.0269-34.1616c.2287-1.2963.5243-2.3188-.6589-2.7484-.684-.2483-2.0804.1168-2.278,1.1348l-4.5231,23.3019c-1.4236,7.3339-8.0067,10.8185-15.0878,10.2198-2.5499-.2156-5.0708-.2103-6.8725-2.0292-1.5038-1.5181-2.6263-4.0312-2.2043-6.581l2.7304-16.4979c.5394-3.259,1.5139-6.1879,1.1681-9.4641-1.065-.1712-1.9224-.1791-3.0701.0513l-3.9561,22.6623c-.7951,4.5549-.4292,9.7031,3.505,12.6145,5.6369,4.1714,18.4006,2.5033,22.5925-4.3748-.1615,8.4563-3.2782,17.5873-10.7539,19.8728-4.9738,1.5206-10.19,1.3367-13.7453-2.0752-2.4566-2.3575-2.1227-6.188-2.1103-9.4364.0025-.6498-2.1263-.7389-2.6052-.3009-.4794.4384-.3169,1.5106-.4094,2.1656-1.0813,7.6548,3.9746,12.9549,11.2109,13.4837,8.9861.6566,16.5852-3.8461,19.7446-12.5142ZM404.7864,347.6975l6.1601-35.8457c.2199-1.2795-1.5015-1.6174-2.3498-1.1647-.5374.2868-.9152.79-1.0941,1.8549l-5.9153,35.1988c.6343.4542,2.3823.5733,3.1991-.0433ZM438.7232,347.3958c.8923.6727,2.727.7937,3.7135.2606l-11.666-18.5192,17.8177-17.9995c-2.9097-1.5043-4.6806.0326-6.5806,2.0166l-12.4014,12.9498c-1.9808-1.3136-2.6492-3.5722-3.9601-5.583l-4.792-7.3508c-.618-.948-1.0989-2.093-1.8234-2.3555-.9867-.3575-2.5729-.5398-3.509.3938l10.3528,16.8814c.5579.9097-.4179,2.2854-1.0783,2.9471l-7.6673,7.682-8.3186,8.7386c.8264.8228,3.0952,1.0453,3.9629.1765l15.7074-15.7253c1.0613,2.5186,2.3941,3.9244,3.6356,5.7535l6.6068,9.7334ZM315.4909,357.3288c.7005-.422-.0622-2.2916-.373-2.0821l-7.675,5.1727c-.5671.3822-.9513.645-1.1753.9516-.1862.2548.2607,1.3566.4915,1.2176l8.7319-5.2598ZM223.7405,371.9526c.915-.0037.7469-1.8474.2373-1.8471l-14.7911.0101-.0416-10.407,15.3616-.0307c.8831-.0018.9039-1.5849.4726-1.6009l-18.1344-.6697-.0879,27.8423,18.8599.2614c.5121.0071.6509-.832.6052-1.1667-.0591-.4336-.4381-.8895-1.1615-.8881l-16.0741.0314.4035-11.4768,14.3504-.0583ZM364.7142,363.2535c1.9342-1.9546,1.33-4.2409-.0009-5.8149-.9492,2.0312-.9998,4.0226.0009,5.8149ZM284.5868,378.205c-.1147,3.2311-2.0955,5.8725-4.8794,6.0719-2.9027.2078-5.7146-1.1203-6.5281-4.5703-.9529-4.0413-.282-8.5603-.3274-13.1851l13.3655-.0686c.2987-.0166.2807-1.4267-.0198-1.4288l-13.1082-.0915c-.5548-2.823.0958-5.4607-.7476-5.4661l-1.3003-.0083c-.2208-.0014.2287,1.3295.128,1.5478-1.1401,2.4721-.3912,5.1312-.3091,7.6538l.3701,11.3663c.0806,2.475,1.2932,4.1971,3.8475,5.1449,2.4662.9151,6.9964,1.2736,9.1469-.7714,3.3669-3.2018,2.243-12.115,1.7671-12.4735-.2181-.1643-1.1808-.0379-1.1906.2375l-.2145,6.0414ZM335.3838,378.8056l-.0118-12.19,12.2929-.054c.758.1158,1.5089-.0629,1.2676-1.4173l-13.3909-.2016-.4723-5.3118c-1.3796-.319-1.6701.354-1.6565,1.2769l.2811,19.1638c.0676,4.6065,5.302,6.3025,9.2259,5.6993,3.7537-.577,5.4668-2.5586,5.8482-6.4226.2271-2.3012,1.3508-5.1056.058-7.2879-.3341-.564-1.6768-.2195-1.7052.182l-.1049,1.4804c-.1496,2.1119.3236,4.2054-.2621,6.0826-.9851,3.1576-3.4866,4.7281-6.342,4.4839-2.7601-.236-5.0251-2.428-5.028-5.4838ZM254.357,384.679c1.9421-.8864,2.4761-3.3218,2.5331-4.8791.0598-1.6336-.5041-4.2634-2.5053-4.6461l-8.9935-1.7199c-2.268-.4337-3.6795-2.2057-3.2487-4.389.3667-1.8585,2.1266-2.6786,4.1014-2.9925,4.2105-.6691,7.5741,1.0673,8.5543,5.7493,1.8583-.4911,1.7019-1.7219,1.4638-2.8426-1.0012-4.7107-9.5142-5.9332-14.4719-2.8384-1.8355,1.1458-2.1124,3.861-1.5031,5.4841,1.9346,5.1534,10.8143,2.4405,14.2394,6.4462,1.449,1.6946-.1235,3.7503-1.0097,4.6642-1.9817,2.0435-7.5277,2.0918-10.333.1646-1.1403-.7833-1.5563-2.7684-2.0263-4.3175-.9513-.0737-1.4933-.0015-1.6852.2362-.2592.321.3533,4.6457,2.8491,5.7738,3.6416,1.6461,8.0722,1.9155,12.0357.1065ZM317.5825,378.9264c-2.794,4.449-5.807,6.2495-9.5115,5.2898-3.7918-.9823-5.7349-4.5472-5.2126-8.6037l15.7817.037c.1039-2.8498-.1426-6.3265-2.5717-8.7924-3.668-3.7236-11.1539-3.1081-13.7198,1.6875-2.1125,3.9483-1.752,9.0316-.1972,12.9768,1.2646,3.2088,4.5462,4.3318,7.816,4.2869,4.0378.2478,8.6757-2.2269,7.615-6.8819ZM385.1095,382.7696c-2.9935-3.498-3.4539-8.5897-1.7183-12.6544,1.3799-3.2316,3.8845-4.5513,7.1785-4.0783,5.3448.7676,4.9339,6.2803,6.4536,6.4029.367.0296.7397-.1635.8609-.3895.4899-.9135-.7709-6.7684-7.4012-7.4832-5.5229-.5954-9.4751,2.941-9.7161,8.5837-.1533,3.5884-.0021,7.349,2.5193,10.2295,2.122,2.4243,5.5509,2.9514,8.7022,2.0682,5.2923-1.4833,6.9858-7.6293,5.0253-7.6299-1.4293-.0004-1.3891,4.8468-5.271,6.1246-2.0832.6857-5.0087.7245-6.6331-1.1737ZM411.9094,380.459c.0338,3.4467,2.1566,5.1173,5.1982,5.403,3.5785.3361,6.6024-.3497,9.2616-2.8947.5283,1.5698.9885,2.3132,2.4109,2.3814l.0995-9.7888c.0324-3.1832.2516-7.4917-2.706-9.6427-3.2401-2.3565-8.771-1.8352-11.9255.4182-1.4457,1.0327-1.8348,3.6322-1.8237,4.9037.0042.4821.8997.6051,1.1035.4909,1.382-.7748.6037-5.4701,6.7879-5.7819,1.9697-.0993,4.0962.517,5.0985,1.7093.8619,1.0252,2.494,4.0941.8763,4.956-5.0302,2.6799-14.4694-1.1471-14.3812,7.8456ZM365.9395,383.9403l-.506-18.5339-1.1646.0181-.0601,19.9617c1.3949.1448,1.7486-.7881,1.7306-1.4459Z" fill="#bc8c4c"/>
  <path d="M277.7232,164.0478l-39.8567.0444-.0638,23.5495-27.2445-.0365.0099-59.5224,43.4756.5188c6.772.0808,12.5075,4.1928,16.8447,8.6287,5.879,7.6674,8.2881,16.8158,6.8347,26.8174Z" fill="#bc8c4c"/>
  <path d="M271.7523,180.8422c-6.1753,7.1121-10.6989,7.413-19.874,6.6671l.0025-20.5176,25.6799-.0114c-.9641,5.1717-2.6968,9.672-5.8084,13.8619Z" fill="#bc8c4c"/>
  <path d="M104.137,307.752c1.6925,8.0367-2.9094,16.6335-11.1223,17.9012l-19.719.2923,4.3163-24.7274,17.4444-.3867c4.345-.0963,8.0811,2.1744,9.0807,6.9205Z" fill="#bc8c4c"/>
  <path d="M296.6423,339.3775c-5.1275,6.6732-16.6718,9.0918-21.5405,4.7239-2.288-2.0527-1.7686-6.3679-.5918-9.087,1.1871-2.7428,4.1313-4.6833,7.6555-5.1226l18.0782-2.2535c-.8982,4.3075-1.0369,8.4017-3.6014,11.7392Z" fill="#bc8c4c"/>
  <path d="M215.5499,345.4303c-4.0724,1.1178-9.2875,1.6389-12.4082-1.4231-3.0488-2.9915-1.4299-8.6748.9962-11.5504,2.4029-1.8199,4.7889-2.4505,7.6032-2.8116l15.9946-2.0522c.5323,8.5183-3.8482,15.5488-12.1858,17.8373Z" fill="#bc8c4c"/>
  <path d="M132.2958,342.4347c-3.479,2.9458-8.1085,3.8604-12.3672,3.4504-4.8495-.4669-8.595-3.9881-9.3688-8.7495-.7513-4.6229-.5378-9.3334,1.2235-13.5834,3.7259-8.9904,14.1048-13.6451,22.7934-9.1096,6.4973,3.3916,7.0682,20.0758-2.2809,27.992Z" fill="#bc8c4c"/>
  <path d="M388.2148,327.4689l-26.0223.0379c.6861-8.5802,7.9061-15.3716,16.5948-15.0451,4.1379.1555,7.9012,2.3295,9.2131,6.1579.9381,2.7375.9512,5.6591.2145,8.8493Z" fill="#bc8c4c"/>
  <path d="M418.8676,384.4162c-3.0617-.0457-4.9556-1.4841-5.199-3.9952-.2727-2.8138,1.6121-4.7118,4.6331-5.0145l8.3929-.8411c.4748,3.2121.2695,5.3546-1.5396,7.4384-1.2815,1.4761-3.5552,2.4532-6.2874,2.4124Z" fill="#bc8c4c"/>
  <path d="M316.6885,374.2458l-13.8793.1505c-.4114-4.4369,2.503-8.3572,6.7708-8.4607,4.2916-.1041,7.7794,3.4435,7.1086,8.3102Z" fill="#bc8c4c"/>
</svg>